<svg xmlns="http://www.w3.org/2000/svg" version="1.1" xmlns:xlink="http://www.w3.org/1999/xlink" xmlns:svgjs="http://svgjs.dev/svgjs" width="1000" height="421" viewBox="0 0 1000 421"><g transform="matrix(1,0,0,1,-0.6060606060606233,0.2680636337125293)"><svg viewBox="0 0 396 167" data-background-color="#ffffff" preserveAspectRatio="xMidYMid meet" height="421" width="1000" xmlns="http://www.w3.org/2000/svg" xmlns:xlink="http://www.w3.org/1999/xlink"><g id="tight-bounds" transform="matrix(1,0,0,1,0.2400000000000091,-0.10633403047503975)"><svg viewBox="0 0 395.52 167.21266806095008" height="167.21266806095008" width="395.52"><g><svg viewBox="0 0 395.52 167.21266806095008" height="167.21266806095008" width="395.52"><g><svg viewBox="0 0 395.52 167.21266806095008" height="167.21266806095008" width="395.52"><g><svg viewBox="0 0 395.52 167.21266806095008" height="167.21266806095008" width="395.52"><g><svg viewBox="0 0 395.52 167.21266806095008" height="167.21266806095008" width="395.52"><g id="textblocktransform"><svg viewBox="0 0 395.52 167.21266806095008" height="167.21266806095008" width="395.52" id="textblock"><g><svg viewBox="0 0 395.52 167.21266806095008" height="167.21266806095008" width="395.52"><g transform="matrix(1,0,0,1,0,0)"><svg width="395.52" viewBox="4.32 -34.55 81.71000000000001 34.55" height="167.21266806095008" data-palette-color="#ffffff"><path d="M4.32 0L4.32-34.55 14.48-34.55Q21.58-34.55 24.9-33.54L24.9-33.54Q28.69-32.37 30.75-30.54 32.81-28.71 33.98-26.76L33.98-26.76Q36.38-22.78 36.38-17.72L36.38-17.72Q36.38-9.77 30.66-4.83L30.66-4.83Q26.61-1.29 21.12-0.46L21.12-0.46Q18.07 0 12.57 0L12.57 0 4.32 0ZM16.77-32.69L16.77-2.03Q17.16-2 17.48-2L17.48-2 18.04-2Q24.66-2 29.35-6.13L29.35-6.13Q34.3-10.47 34.3-17.68L34.3-17.68Q34.3-22.22 32.13-25.85L32.13-25.85Q28.98-31.15 22.17-32.28L22.17-32.28Q19.95-32.64 16.77-32.69L16.77-32.69ZM53.97 0L53.97-34.55 64.13-34.55Q71.24-34.55 74.56-33.54L74.56-33.54Q78.34-32.37 80.4-30.54 82.47-28.71 83.64-26.76L83.64-26.76Q86.03-22.78 86.03-17.72L86.03-17.72Q86.03-9.77 80.32-4.83L80.32-4.83Q76.26-1.29 70.77-0.46L70.77-0.46Q67.72 0 62.23 0L62.23 0 53.97 0ZM66.43-32.69L66.43-2.03Q66.82-2 67.13-2L67.13-2 67.7-2Q74.31-2 79-6.13L79-6.13Q83.95-10.47 83.95-17.68L83.95-17.68Q83.95-22.22 81.78-25.85L81.78-25.85Q78.63-31.15 71.82-32.28L71.82-32.28Q69.6-32.64 66.43-32.69L66.43-32.69Z" opacity="1" transform="matrix(1,0,0,1,0,0)" fill="#ffffff" class="wordmark-text-0" data-fill-palette-color="primary" id="text-0"></path></svg></g></svg></g></svg></g></svg></g></svg></g></svg></g></svg></g><defs></defs></svg><rect width="395.52" height="167.21266806095008" fill="none" stroke="none" visibility="hidden"></rect></g></svg></g></svg>